<svg width="88" height="48" viewBox="0 0 88 48" fill="none" xmlns="http://www.w3.org/2000/svg">
<path d="M30.0802 38.3417C30.158 38.1768 30.2188 37.9889 30.2594 37.7867L31.3056 37.8676L31.738 37.2766C31.9784 37.434 32.0615 38.2174 32.6111 37.6633L32.8649 37.2805L35.0046 37.4459L35.333 36.9163C36.0386 36.7489 36.804 37.03 37.5626 36.9499L37.8664 36.46L41.3984 36.7331L41.8382 36.1566L42.4203 36.8399L43.0049 36.1497L49.0934 36.6205L49.5031 36L61.3576 36.9166L61.7874 37.6991L62.5909 37.0813L64.6206 37.2382L64.9849 37.7937C65.4619 38.2746 65.886 37.3777 66.3771 37.2769L66.7779 37.96L69.5468 38.1741L69.9398 37.594L70.1879 38.0711C70.235 38.0747 70.2702 38.244 70.3173 38.2476L76.0206 38.6886L76.4896 39.4879L77.1989 38.849L78.5836 38.9561L78.8845 39.5344L79.97 39.6183L80.3462 39.0646L80.7088 39.7032L81.4088 39.7573L81.8096 39.1639L82.4261 40.3771C82.8313 40.5472 83.2049 40.7564 83.5476 39.9504L85.3648 40.0909L85.7199 40.715C86.1023 40.8694 86.5106 40.6096 86.9563 41.0742L86.6158 41.7695L88 43.1669C86.9422 43.543 82.5348 43.2993 78.7516 42.6599L78.4964 42.1545L77.403 42.07L77.0185 42.6369L74.8708 42.4709L74.5166 41.8191L74.1638 42.3884C73.6696 42.4128 73.1755 42.3746 72.6849 42.2741L72.3994 41.7109L70.5663 41.5692L70.1835 42.0669L68.7988 41.9598C68.6563 41.7158 68.4851 41.5296 68.2977 41.4144C68.1098 41.2992 67.91 41.2578 67.712 41.293L67.3033 41.8858L65.1794 41.7216L64.7618 42.3553L62.2525 42.1613L61.9894 42.5988C61.9423 42.5952 61.8908 42.7577 61.8438 42.7541L50.406 41.8697L49.8995 42.5798L49.2087 41.8327C49.0411 41.7025 48.8532 41.6793 48.6768 41.7669C48.5008 41.8546 48.3472 42.0477 48.2434 42.313L38.9215 41.5923L38.4803 42.2241L37.0564 42.1141L36.7018 41.4762C36.5876 41.4223 36.467 41.4283 36.3547 41.4936C36.2425 41.5589 36.1435 41.6805 36.0701 41.8436C35.7663 42.3335 35.5396 41.9413 35.2931 41.395L34.8785 41.904L33.8873 41.8274L33.4225 42.4575L30.6063 42.2397L30.165 42.8717L26.6016 42.5961L26.1917 43.2305L22.9587 42.9805L22.6378 43.5246L21.5758 43.4424L21.1107 44.0864L20.8172 43.5226L19.3148 43.4064L18.9536 43.989L17.1521 43.8497L16.807 44.4196L14.6752 44.2548L14.2575 44.8885L12.818 44.7772L12.505 45.322L11.0497 45.2094C10.8937 45.461 10.811 45.6211 10.7132 45.7523C10.4272 46.1603 10.0018 45.5169 9.73425 46.1344C9.46678 46.7521 9.18394 46.3972 8.93939 46.406C8.69484 46.4149 8.47528 46.3701 8.28577 46.7023C7.95432 47.3566 7.30523 46.5156 7.04352 47.536L5.22636 47.3955L4.83375 46.6991C4.75301 47.0953 4.67298 47.4637 4.58471 47.8453C4.17997 48.0358 3.755 48.0505 3.34624 47.8884L3.1329 46.637L2.71013 47.1593L2.36131 46.6051L1.96966 47.1436L0.868358 47.0585L0.0127241 45.3273C-0.0200046 44.8611 0.0106238 44.3879 0.102077 43.9467L1.27417 44.0373L1.63907 44.5789L3.10223 44.692L3.42239 44.1757L4.46864 44.2566L4.902 43.624L5.94823 43.7049L6.36588 43.0712L8.15157 43.2093L8.48813 42.6664L9.56582 42.7498L9.94382 42.1268L10.9428 42.2041L11.447 41.577L13.0832 41.7035L14.447 40.4214L16.8069 40.6039L17.2163 39.9834L20.0876 40.2054C20.1779 40.0598 20.2682 39.9142 20.4166 39.6481L22.218 39.7874L22.6203 39.1386L24.4138 39.2773L24.8161 38.6285L26.9715 38.7951L27.3248 38.2119L29.0869 38.3482L29.5038 37.7422C29.6578 37.9863 29.8305 38.1911 30.0169 38.3507C30.0791 38.7024 29.9959 39.1955 30.3606 38.7935C30.2826 38.6157 30.1877 38.4628 30.0802 38.3417Z" fill="#ADC9A6"/>
</svg>
